<svg width="15" height="17" viewBox="0 0 15 17" fill="none" xmlns="http://www.w3.org/2000/svg">
<path d="M4 0C3.46957 0 2.96086 0.210714 2.58579 0.585786C2.21071 0.960859 2 1.46957 2 2V12C2 13.1 2.9 14 4 14H5.2C5.12 13.68 5.05 13.34 5.02 13H4C3.73478 13 3.48043 12.8946 3.29289 12.7071C3.10536 12.5196 3 12.2652 3 12V2C3 1.73478 3.10536 1.48043 3.29289 1.29289C3.48043 1.10536 3.73478 1 4 1H10C10.2652 1 10.5196 1.10536 10.7071 1.29289C10.8946 1.48043 11 1.73478 11 2V7.02C11.34 7.05 11.68 7.12 12 7.21V2C12 1.46957 11.7893 0.960859 11.4142 0.585786C11.0391 0.210714 10.5304 0 10 0H4ZM3.5 15H5.6C5.78 15.36 6 15.7 6.26 16H3.5C2.57174 16 1.6815 15.6313 1.02513 14.9749C0.368749 14.3185 0 13.4283 0 12.5V4C0.000359742 3.64927 0.092943 3.30481 0.268462 3.00116C0.44398 2.69752 0.696262 2.44536 1 2.27V12.5C1 13.163 1.26339 13.7989 1.73223 14.2678C2.20107 14.7366 2.83696 15 3.5 15ZM15 12.5C15 13.6935 14.5259 14.8381 13.682 15.682C12.8381 16.5259 11.6935 17 10.5 17C9.30653 17 8.16193 16.5259 7.31802 15.682C6.47411 14.8381 6 13.6935 6 12.5C6 11.3065 6.47411 10.1619 7.31802 9.31802C8.16193 8.47411 9.30653 8 10.5 8C11.6935 8 12.8381 8.47411 13.682 9.31802C14.5259 10.1619 15 11.3065 15 12.5ZM11 10.5C11 10.3674 10.9473 10.2402 10.8536 10.1464C10.7598 10.0527 10.6326 10 10.5 10C10.3674 10 10.2402 10.0527 10.1464 10.1464C10.0527 10.2402 10 10.3674 10 10.5V12H8.5C8.36739 12 8.24021 12.0527 8.14645 12.1464C8.05268 12.2402 8 12.3674 8 12.5C8 12.6326 8.05268 12.7598 8.14645 12.8536C8.24021 12.9473 8.36739 13 8.5 13H10V14.5C10 14.6326 10.0527 14.7598 10.1464 14.8536C10.2402 14.9473 10.3674 15 10.5 15C10.6326 15 10.7598 14.9473 10.8536 14.8536C10.9473 14.7598 11 14.6326 11 14.5V13H12.5C12.6326 13 12.7598 12.9473 12.8536 12.8536C12.9473 12.7598 13 12.6326 13 12.5C13 12.3674 12.9473 12.2402 12.8536 12.1464C12.7598 12.0527 12.6326 12 12.5 12H11V10.5Z" fill="grey"/>
</svg>
