<svg width="16" height="16" viewBox="0 0 16 16" fill="none" xmlns="http://www.w3.org/2000/svg">
<path d="M3.92 0.229993C3.84517 0.126113 3.73334 0.0548971 3.60755 0.0310208C3.48177 0.00714452 3.35162 0.0324276 3.24393 0.10166C3.13623 0.170892 3.0592 0.278798 3.0287 0.40314C2.9982 0.527482 3.01656 0.658786 3.08 0.769993L7.4 7.42999L5.48 10.39C4.82686 10.0176 4.05772 9.90407 3.32484 10.0718C2.59196 10.2395 1.94878 10.6763 1.52263 11.2957C1.09648 11.9151 0.918422 12.6719 1.02372 13.4163C1.12901 14.1608 1.50998 14.8385 2.0912 15.3154C2.67242 15.7923 3.41151 16.0336 4.16216 15.9915C4.91281 15.9494 5.62029 15.627 6.14453 15.088C6.66877 14.5491 6.97155 13.833 6.99294 13.0815C7.01432 12.33 6.75275 11.5978 6.26 11.03L8 8.34999L9.74 11.03C9.24725 11.5978 8.98568 12.33 9.00707 13.0815C9.02845 13.833 9.33124 14.5491 9.85548 15.088C10.3797 15.627 11.0872 15.9494 11.8378 15.9915C12.5885 16.0336 13.3276 15.7923 13.9088 15.3154C14.49 14.8385 14.871 14.1608 14.9763 13.4163C15.0816 12.6719 14.9035 11.9151 14.4774 11.2957C14.0512 10.6763 13.408 10.2395 12.6752 10.0718C11.9423 9.90407 11.1731 10.0176 10.52 10.39L3.92 0.229993ZM12 15C11.4696 15 10.9609 14.7893 10.5858 14.4142C10.2107 14.0391 10 13.5304 10 13C10 12.4696 10.2107 11.9609 10.5858 11.5858C10.9609 11.2107 11.4696 11 12 11C12.5304 11 13.0391 11.2107 13.4142 11.5858C13.7893 11.9609 14 12.4696 14 13C14 13.5304 13.7893 14.0391 13.4142 14.4142C13.0391 14.7893 12.5304 15 12 15ZM2 13C2 12.4696 2.21071 11.9609 2.58579 11.5858C2.96086 11.2107 3.46957 11 4 11C4.53043 11 5.03914 11.2107 5.41421 11.5858C5.78929 11.9609 6 12.4696 6 13C6 13.5304 5.78929 14.0391 5.41421 14.4142C5.03914 14.7893 4.53043 15 4 15C3.46957 15 2.96086 14.7893 2.58579 14.4142C2.21071 14.0391 2 13.5304 2 13ZM9.2 6.50999L8.6 5.58999L12.08 0.229993C12.1548 0.126113 12.2667 0.0548971 12.3924 0.0310208C12.5182 0.00714452 12.6484 0.0324276 12.7561 0.10166C12.8638 0.170892 12.9408 0.278798 12.9713 0.40314C13.0018 0.527482 12.9834 0.658786 12.92 0.769993L9.19 6.50999H9.2Z" fill="#b3b3b6"/>
</svg>
