<svg width="16" height="17" viewBox="0 0 16 17" fill="none" xmlns="http://www.w3.org/2000/svg">
<path d="M9.5 3C9.5 2.60218 9.34196 2.22064 9.06066 1.93934C8.77936 1.65804 8.39782 1.5 8 1.5C7.60218 1.5 7.22064 1.65804 6.93934 1.93934C6.65804 2.22064 6.5 2.60218 6.5 3H5.5C5.5 2.33696 5.76339 1.70107 6.23223 1.23223C6.70107 0.763392 7.33696 0.5 8 0.5C8.66304 0.5 9.29893 0.763392 9.76777 1.23223C10.2366 1.70107 10.5 2.33696 10.5 3H15C15.1326 3 15.2598 3.05268 15.3536 3.14645C15.4473 3.24021 15.5 3.36739 15.5 3.5C15.5 3.63261 15.4473 3.75979 15.3536 3.85355C15.2598 3.94732 15.1326 4 15 4H14.45L13.15 15.23C13.0935 15.7179 12.8595 16.168 12.4925 16.4944C12.1255 16.8208 11.6512 17.0008 11.16 17H4.84C4.34883 17.0008 3.87454 16.8208 3.50754 16.4944C3.14053 16.168 2.90648 15.7179 2.85 15.23L1.55 4H1C0.881606 4.00193 0.766368 3.96178 0.674806 3.8867C0.583243 3.81162 0.521298 3.70648 0.5 3.59V3.5C0.5 3.22 0.72 3 1 3H9.5ZM13.44 4H2.56L3.84 15.11C3.86719 15.3557 3.98443 15.5827 4.16911 15.747C4.35378 15.9114 4.59279 16.0015 4.84 16H11.16C11.4072 16.0015 11.6462 15.9114 11.8309 15.747C12.0156 15.5827 12.1328 15.3557 12.16 15.11L13.44 4ZM6.5 6.5C6.75 6.5 6.95 6.65 7 6.86V13.06C7 13.3 6.78 13.5 6.5 13.5C6.25 13.5 6.05 13.35 6 13.14V6.94C6 6.7 6.22 6.5 6.5 6.5ZM9.5 6.5C9.75 6.5 9.95 6.65 10 6.86V13.06C10 13.3 9.78 13.5 9.5 13.5C9.25 13.5 9.05 13.35 9 13.14V6.94C9 6.7 9.22 6.5 9.5 6.5Z" fill="#b3b3b6"/>
</svg>
