<svg width="20" height="20" viewBox="0 0 20 20" fill="none" xmlns="http://www.w3.org/2000/svg">
<path d="M7.49999 13H12.5C12.6326 12.9881 12.7645 13.0293 12.8667 13.1146C12.9689 13.2 13.0331 13.3224 13.045 13.455C13.0569 13.5876 13.0157 13.7195 12.9304 13.8217C12.845 13.9239 12.7226 13.9881 12.59 14H7.49999C7.36739 14.0119 7.23547 13.9707 7.13326 13.8854C7.03105 13.8 6.96693 13.6776 6.95499 13.545C6.94306 13.4124 6.98429 13.2805 7.06962 13.1783C7.15495 13.0761 7.27739 13.0119 7.40999 13H12.5H7.49999ZM5.49999 9H14.5C14.6326 8.98807 14.7645 9.0293 14.8667 9.11463C14.9689 9.19996 15.0331 9.32239 15.045 9.455C15.0569 9.58761 15.0157 9.71953 14.9304 9.82173C14.845 9.92394 14.7226 9.98807 14.59 10H5.49999C5.36739 10.0119 5.23547 9.9707 5.13326 9.88537C5.03105 9.80004 4.96693 9.67761 4.95499 9.545C4.94306 9.41239 4.98429 9.28047 5.06962 9.17827C5.15495 9.07606 5.27739 9.01194 5.40999 9H14.5H5.49999ZM3.49999 5H16.5C16.6326 4.98807 16.7645 5.0293 16.8667 5.11463C16.9689 5.19996 17.0331 5.32239 17.045 5.455C17.0569 5.58761 17.0157 5.71953 16.9304 5.82173C16.845 5.92394 16.7226 5.98807 16.59 6H3.49999C3.36739 6.01194 3.23547 5.9707 3.13326 5.88537C3.03105 5.80004 2.96693 5.67761 2.95499 5.545C2.94306 5.41239 2.98429 5.28047 3.06962 5.17827C3.15495 5.07606 3.27739 5.01194 3.40999 5H16.5H3.49999Z" fill="#b3b3b6"/>
</svg>
