<svg width="20" height="20" viewBox="0 0 20 20" fill="none" xmlns="http://www.w3.org/2000/svg">
<path fill-rule="evenodd" clip-rule="evenodd" d="M9.50004 3.21339V0.552015C9.50004 0.329289 9.76932 0.217747 9.92681 0.375238L13.3233 3.77169C13.4209 3.86932 13.4209 4.02761 13.3233 4.12524L9.92681 7.52169C9.76932 7.67918 9.50004 7.56763 9.50004 7.34491V4.71672C6.00558 4.97257 3.25 7.88873 3.25 11.4485C3.25 15.1764 6.27208 18.1985 10 18.1985C13.7279 18.1985 16.75 15.1764 16.75 11.4485C16.75 11.0343 17.0858 10.6985 17.5 10.6985C17.9142 10.6985 18.25 11.0343 18.25 11.4485C18.25 16.0048 14.5563 19.6985 10 19.6985C5.44365 19.6985 1.75 16.0048 1.75 11.4485C1.75 7.06001 5.17649 3.47183 9.50004 3.21339Z" fill="black"/>
<path d="M7.7583 14.6536L8.3999 13.8054C8.60205 13.9578 8.80859 14.0691 9.01953 14.1394C9.23047 14.2097 9.44141 14.2449 9.65234 14.2449C9.97168 14.2449 10.2192 14.1584 10.395 13.9856C10.5708 13.8098 10.6587 13.5857 10.6587 13.3132C10.6587 12.9734 10.5474 12.7258 10.3247 12.5706C10.1021 12.4153 9.76953 12.3376 9.32715 12.3376C9.16602 12.3376 8.99023 12.345 8.7998 12.3596C8.6123 12.3713 8.41309 12.3889 8.20215 12.4124L8.43945 8.89673H11.7749V10.0305H9.49854L9.41064 11.2917C9.5249 11.283 9.63037 11.2771 9.72705 11.2742C9.82373 11.2683 9.91309 11.2654 9.99512 11.2654C10.6426 11.2654 11.1494 11.4353 11.5156 11.7751C11.8818 12.115 12.0649 12.5852 12.0649 13.1858C12.0649 13.7952 11.8569 14.302 11.4409 14.7063C11.0249 15.1077 10.4492 15.3083 9.71387 15.3083C9.33887 15.3083 8.99463 15.2556 8.68115 15.1501C8.36768 15.0447 8.06006 14.8792 7.7583 14.6536Z" fill="black"/>
</svg>
