<svg width="13" height="16" viewBox="0 0 13 16" fill="none" xmlns="http://www.w3.org/2000/svg">
<path d="M11.7 0.229993C11.8495 0.182988 12.0079 0.17176 12.1625 0.197215C12.3171 0.22267 12.4635 0.284095 12.59 0.376538C12.7165 0.468981 12.8195 0.589855 12.8907 0.729415C12.962 0.868975 12.9994 1.02332 13 1.17999V11.5C13 12.0632 12.8099 12.6098 12.4604 13.0515C12.1109 13.4931 11.6225 13.8037 11.0744 13.9331C10.5263 14.0625 9.95054 14.003 9.44044 13.7644C8.93035 13.5257 8.51579 13.1217 8.26394 12.618C8.01208 12.1143 7.93767 11.5403 8.05278 10.989C8.16788 10.4377 8.46576 9.94147 8.89813 9.58061C9.33051 9.21976 9.87206 9.01547 10.435 9.00084C10.998 8.9862 11.5495 9.16209 12 9.49999V4.17999L5 6.36999V13.5C5 14.0632 4.80985 14.6098 4.46035 15.0515C4.11086 15.4931 3.62249 15.8037 3.07439 15.9331C2.52628 16.0625 1.95054 16.003 1.44044 15.7644C0.930353 15.5257 0.515794 15.1217 0.263935 14.618C0.012076 14.1143 -0.0623279 13.5403 0.0527782 12.989C0.167884 12.4377 0.465757 11.9415 0.898134 11.5806C1.33051 11.2198 1.87206 11.0155 2.43505 11.0008C2.99803 10.9862 3.54946 11.1621 4 11.5V3.36999C3.99871 3.15616 4.06599 2.94755 4.19198 2.77477C4.31796 2.60198 4.49602 2.47414 4.7 2.40999L11.7 0.229993ZM5 5.31999L12 3.12999V1.17999L5 3.36999V5.31999ZM2.5 12C2.10218 12 1.72065 12.158 1.43934 12.4393C1.15804 12.7206 1 13.1022 1 13.5C1 13.8978 1.15804 14.2793 1.43934 14.5607C1.72065 14.842 2.10218 15 2.5 15C2.89783 15 3.27936 14.842 3.56066 14.5607C3.84197 14.2793 4 13.8978 4 13.5C4 13.1022 3.84197 12.7206 3.56066 12.4393C3.27936 12.158 2.89783 12 2.5 12ZM9 11.5C9 11.8978 9.15804 12.2793 9.43934 12.5607C9.72065 12.842 10.1022 13 10.5 13C10.8978 13 11.2794 12.842 11.5607 12.5607C11.842 12.2793 12 11.8978 12 11.5C12 11.1022 11.842 10.7206 11.5607 10.4393C11.2794 10.158 10.8978 9.99999 10.5 9.99999C10.1022 9.99999 9.72065 10.158 9.43934 10.4393C9.15804 10.7206 9 11.1022 9 11.5Z" fill="grey"/>
</svg>
