<svg width="20" height="20" viewBox="0 0 20 20" fill="none" xmlns="http://www.w3.org/2000/svg">
<path d="M3.00001 4.24999C3.00001 3.24999 4.12001 2.64999 4.95001 3.20999L13.45 8.91999C14.18 9.41999 14.18 10.49 13.45 10.99L4.95001 16.79C4.76169 16.9173 4.54223 16.9908 4.31524 17.0027C4.08825 17.0145 3.86232 16.9643 3.66176 16.8573C3.46121 16.7504 3.29361 16.5907 3.17701 16.3956C3.0604 16.2005 2.99921 15.9773 3.00001 15.75V4.24999ZM17 3.49999C17 3.36738 16.9473 3.2402 16.8536 3.14643C16.7598 3.05267 16.6326 2.99999 16.5 2.99999C16.3674 2.99999 16.2402 3.05267 16.1465 3.14643C16.0527 3.2402 16 3.36738 16 3.49999V16.5C16 16.6326 16.0527 16.7598 16.1465 16.8535C16.2402 16.9473 16.3674 17 16.5 17C16.6326 17 16.7598 16.9473 16.8536 16.8535C16.9473 16.7598 17 16.6326 17 16.5V3.49999Z" fill="#b3b3b6"/>
</svg>
