<svg width="24" height="24" viewBox="0 0 24 24" fill="none" xmlns="http://www.w3.org/2000/svg">
<path d="M5 5.27C5 3.57 6.83 2.48 8.33 3.3L20.69 10.02C21.0472 10.2128 21.3456 10.4986 21.5535 10.8472C21.7615 11.1958 21.8713 11.5941 21.8713 12C21.8713 12.4059 21.7615 12.8042 21.5535 13.1528C21.3456 13.5014 21.0472 13.7872 20.69 13.98L8.33 20.7C7.98764 20.8873 7.60245 20.9824 7.21225 20.9758C6.82205 20.9693 6.44026 20.8614 6.10438 20.6627C5.7685 20.464 5.49007 20.1813 5.29645 19.8425C5.10283 19.5036 5.00067 19.1203 5 18.73V5.27Z" fill="black"/>
</svg>
