<svg width="20" height="20" viewBox="0 0 20 20" fill="none" xmlns="http://www.w3.org/2000/svg">
<path d="M17 4.24999C17 3.24999 15.88 2.64999 15.05 3.20999L6.55 8.91999C5.82 9.41999 5.82 10.49 6.55 10.99L15.05 16.79C15.88 17.35 17 16.76 17 15.75V4.24999ZM3 3.49999C3 3.36738 3.05268 3.2402 3.14645 3.14643C3.24021 3.05267 3.36739 2.99999 3.5 2.99999C3.63261 2.99999 3.75979 3.05267 3.85355 3.14643C3.94732 3.2402 4 3.36738 4 3.49999V16.5C4 16.6326 3.94732 16.7598 3.85355 16.8535C3.75979 16.9473 3.63261 17 3.5 17C3.36739 17 3.24021 16.9473 3.14645 16.8535C3.05268 16.7598 3 16.6326 3 16.5V3.49999Z" fill="#b3b3b6"/>
</svg>
