<svg width="20" height="20" viewBox="0 0 20 20" fill="none" xmlns="http://www.w3.org/2000/svg">
<path d="M10 2.5C10 2.36739 9.94732 2.24021 9.85355 2.14645C9.75979 2.05268 9.63261 2 9.5 2C9.36739 2 9.24021 2.05268 9.14645 2.14645C9.05268 2.24021 9 2.36739 9 2.5V9H2.5C2.36739 9 2.24021 9.05268 2.14645 9.14645C2.05268 9.24021 2 9.36739 2 9.5C2 9.63261 2.05268 9.75979 2.14645 9.85355C2.24021 9.94732 2.36739 10 2.5 10H9V16.5C9 16.6326 9.05268 16.7598 9.14645 16.8536C9.24021 16.9473 9.36739 17 9.5 17C9.63261 17 9.75979 16.9473 9.85355 16.8536C9.94732 16.7598 10 16.6326 10 16.5V10H16.5C16.6326 10 16.7598 9.94732 16.8536 9.85355C16.9473 9.75979 17 9.63261 17 9.5C17 9.36739 16.9473 9.24021 16.8536 9.14645C16.7598 9.05268 16.6326 9 16.5 9H10V2.5Z" fill="#b3b3b6"/>
</svg>
