<svg width="15" height="15" viewBox="0 0 15 15" fill="none" xmlns="http://www.w3.org/2000/svg">
<path d="M8 0.5C8 0.367392 7.94732 0.240215 7.85355 0.146447C7.75979 0.0526785 7.63261 0 7.5 0C7.36739 0 7.24021 0.0526785 7.14645 0.146447C7.05268 0.240215 7 0.367392 7 0.5V7H0.5C0.367392 7 0.240215 7.05268 0.146447 7.14645C0.0526785 7.24021 0 7.36739 0 7.5C0 7.63261 0.0526785 7.75979 0.146447 7.85355C0.240215 7.94732 0.367392 8 0.5 8H7V14.5C7 14.6326 7.05268 14.7598 7.14645 14.8536C7.24021 14.9473 7.36739 15 7.5 15C7.63261 15 7.75979 14.9473 7.85355 14.8536C7.94732 14.7598 8 14.6326 8 14.5V8H14.5C14.6326 8 14.7598 7.94732 14.8536 7.85355C14.9473 7.75979 15 7.63261 15 7.5C15 7.36739 14.9473 7.24021 14.8536 7.14645C14.7598 7.05268 14.6326 7 14.5 7H8V0.5Z" fill="#b3b3b6"/>
</svg>
