<svg width="12" height="14" viewBox="0 0 12 14" fill="none" xmlns="http://www.w3.org/2000/svg">
<path d="M0 8.99999C0 10.3261 0.526784 11.5978 1.46447 12.5355C2.40215 13.4732 3.67392 14 5 14H9.5C9.63261 14 9.75979 13.9473 9.85355 13.8535C9.94732 13.7598 10 13.6326 10 13.5C10 13.3674 9.94732 13.2402 9.85355 13.1464C9.75979 13.0527 9.63261 13 9.5 13H5C3.93913 13 2.92172 12.5786 2.17157 11.8284C1.42143 11.0783 1 10.0609 1 8.99999C1 7.93912 1.42143 6.9217 2.17157 6.17156C2.92172 5.42141 3.93913 4.99999 5 4.99999H10.3L7.6 7.69999C7.54269 7.74297 7.49529 7.79776 7.461 7.86066C7.42671 7.92356 7.40634 7.99309 7.40126 8.06454C7.39618 8.136 7.40652 8.20771 7.43156 8.27482C7.45661 8.34194 7.49579 8.40289 7.54645 8.45354C7.5971 8.50419 7.65805 8.54337 7.72516 8.56842C7.79228 8.59347 7.86399 8.60381 7.93544 8.59873C8.0069 8.59365 8.07643 8.57328 8.13933 8.53899C8.20222 8.5047 8.25702 8.4573 8.3 8.39999L11.84 4.86999C11.9051 4.80638 11.9517 4.72619 11.9746 4.63808C11.9975 4.54996 11.9959 4.45727 11.97 4.36999C11.9487 4.27478 11.9001 4.18788 11.83 4.11999L8.3 0.599987C8.25554 0.547354 8.20068 0.504478 8.13887 0.474049C8.07706 0.443619 8.00962 0.426292 7.9408 0.423156C7.87197 0.42002 7.80324 0.431142 7.73891 0.455824C7.67459 0.480506 7.61606 0.518215 7.567 0.566586C7.51794 0.614957 7.4794 0.672946 7.45381 0.736913C7.42822 0.800881 7.41612 0.869448 7.41828 0.938311C7.42044 1.00717 7.43681 1.07485 7.46636 1.13709C7.49591 1.19933 7.538 1.25479 7.59 1.29999L10.29 3.99999H5C3.67392 3.99999 2.40215 4.52677 1.46447 5.46445C0.526784 6.40213 0 7.6739 0 8.99999Z" fill="#b3b3b6"/>
</svg>
