<svg width="20" height="20" viewBox="0 0 20 20" fill="none" xmlns="http://www.w3.org/2000/svg">
<path d="M8.50003 3C9.54561 2.99925 10.5698 3.29656 11.4524 3.85708C12.3351 4.4176 13.0396 5.2181 13.4836 6.16476C13.9275 7.11142 14.0924 8.16502 13.959 9.20205C13.8255 10.2391 13.3992 11.2166 12.73 12.02L16.85 16.15C16.9282 16.2394 16.972 16.3538 16.9735 16.4725C16.9751 16.5913 16.9343 16.7067 16.8585 16.7981C16.7827 16.8896 16.6768 16.951 16.5598 16.9715C16.4429 16.992 16.3224 16.9702 16.22 16.91L16.15 16.85L12.02 12.73C11.341 13.2943 10.5361 13.6868 9.67341 13.8744C8.81069 14.062 7.91549 14.0392 7.06347 13.8078C6.21144 13.5764 5.42764 13.1434 4.77829 12.5452C4.12895 11.947 3.63315 11.2013 3.3328 10.371C3.03245 9.54082 2.93638 8.6505 3.05271 7.77532C3.16904 6.90014 3.49435 6.06582 4.00114 5.34288C4.50793 4.61995 5.18131 4.02964 5.96437 3.62184C6.74743 3.21405 7.61715 3.00076 8.50003 3ZM8.50003 4C7.30655 4 6.16196 4.47411 5.31805 5.31802C4.47413 6.16193 4.00003 7.30653 4.00003 8.5C4.00003 9.69347 4.47413 10.8381 5.31805 11.682C6.16196 12.5259 7.30655 13 8.50003 13C9.6935 13 10.8381 12.5259 11.682 11.682C12.5259 10.8381 13 9.69347 13 8.5C13 7.30653 12.5259 6.16193 11.682 5.31802C10.8381 4.47411 9.6935 4 8.50003 4Z" fill="black"/>
</svg>
