<svg width="14" height="14" viewBox="0 0 14 14" fill="none" xmlns="http://www.w3.org/2000/svg">
<path d="M11 4.5C11 4.69698 10.9612 4.89204 10.8858 5.07403C10.8104 5.25601 10.6999 5.42137 10.5607 5.56066C10.4214 5.69995 10.256 5.81044 10.074 5.88582C9.89204 5.9612 9.69698 6 9.5 6C9.30302 6 9.10796 5.9612 8.92597 5.88582C8.74399 5.81044 8.57863 5.69995 8.43934 5.56066C8.30005 5.42137 8.18956 5.25601 8.11418 5.07403C8.0388 4.89204 8 4.69698 8 4.5C8 4.10218 8.15804 3.72064 8.43934 3.43934C8.72064 3.15804 9.10218 3 9.5 3C9.89782 3 10.2794 3.15804 10.5607 3.43934C10.842 3.72064 11 4.10218 11 4.5ZM10 4.5C10 4.36739 9.94732 4.24021 9.85355 4.14645C9.75979 4.05268 9.63261 4 9.5 4C9.36739 4 9.24021 4.05268 9.14645 4.14645C9.05268 4.24021 9 4.36739 9 4.5C9 4.63261 9.05268 4.75979 9.14645 4.85355C9.24021 4.94732 9.36739 5 9.5 5C9.63261 5 9.75979 4.94732 9.85355 4.85355C9.94732 4.75979 10 4.63261 10 4.5ZM0 3C0 2.20435 0.316071 1.44129 0.87868 0.87868C1.44129 0.316071 2.20435 0 3 0H11C11.7956 0 12.5587 0.316071 13.1213 0.87868C13.6839 1.44129 14 2.20435 14 3V11C14 11.7956 13.6839 12.5587 13.1213 13.1213C12.5587 13.6839 11.7956 14 11 14H3C2.20435 14 1.44129 13.6839 0.87868 13.1213C0.316071 12.5587 0 11.7956 0 11V3ZM3 1C2.46957 1 1.96086 1.21071 1.58579 1.58579C1.21071 1.96086 1 2.46957 1 3V11C1 11.37 1.1 11.72 1.28 12.02L5.95 7.43C6.23039 7.15516 6.60737 7.00121 7 7.00121C7.39263 7.00121 7.76961 7.15516 8.05 7.43L12.72 12.02C12.9 11.72 13 11.37 13 11V3C13 2.46957 12.7893 1.96086 12.4142 1.58579C12.0391 1.21071 11.5304 1 11 1H3ZM3 13H11C11.3547 13.0011 11.7032 12.908 12.01 12.73L7.35 8.15C7.25654 8.05839 7.13088 8.00707 7 8.00707C6.86912 8.00707 6.74346 8.05839 6.65 8.15L1.99 12.73C2.29677 12.908 2.64535 13.0011 3 13Z" fill="#b3b3b6"/>
</svg>
