<svg width="11" height="14" viewBox="0 0 11 14" fill="none" xmlns="http://www.w3.org/2000/svg">
<path d="M0 0.5C0 0.22 0.22 0 0.5 0H10.5C10.78 0 11 0.22 11 0.5V2.5C11 2.63261 10.9473 2.75979 10.8536 2.85355C10.7598 2.94732 10.6326 3 10.5 3C10.3674 3 10.2402 2.94732 10.1464 2.85355C10.0527 2.75979 10 2.63261 10 2.5V1H6V13H7.5C7.63261 13 7.75979 13.0527 7.85355 13.1464C7.94732 13.2402 8 13.3674 8 13.5C8 13.6326 7.94732 13.7598 7.85355 13.8536C7.75979 13.9473 7.63261 14 7.5 14H3.5C3.36739 14 3.24021 13.9473 3.14645 13.8536C3.05268 13.7598 3 13.6326 3 13.5C3 13.3674 3.05268 13.2402 3.14645 13.1464C3.24021 13.0527 3.36739 13 3.5 13H5V1H1V2.5C1 2.63261 0.947321 2.75979 0.853553 2.85355C0.759785 2.94732 0.632608 3 0.5 3C0.367392 3 0.240215 2.94732 0.146447 2.85355C0.0526785 2.75979 0 2.63261 0 2.5V0.5Z" fill="#b3b3b6"/>
</svg>
