<svg width="12" height="14" viewBox="0 0 12 14" fill="none" xmlns="http://www.w3.org/2000/svg">
<path d="M2.00001 13.5C2.00001 13.78 2.22001 14 2.50001 14H7.00001C8.64001 14 9.90001 13.38 10.75 12.43C11.5707 11.4772 12.0152 10.2575 12 9.00001C12 7.77001 11.59 6.52001 10.75 5.57001C10.2758 5.05256 9.69489 4.6442 9.04745 4.37313C8.40001 4.10207 7.70145 3.97477 7.00001 4.00001H1.70001L4.35001 1.35001C4.40732 1.30703 4.45472 1.25224 4.48901 1.18934C4.5233 1.12644 4.54367 1.05691 4.54875 0.985457C4.55383 0.914001 4.54349 0.842288 4.51844 0.775174C4.49339 0.708061 4.45422 0.647113 4.40356 0.596459C4.35291 0.545804 4.29196 0.506626 4.22485 0.481577C4.15773 0.456527 4.08602 0.446192 4.01456 0.45127C3.94311 0.456348 3.87358 0.476722 3.81068 0.511011C3.74778 0.5453 3.69299 0.592703 3.65001 0.650012L0.150009 4.15001C0.0583952 4.24348 0.00708008 4.36914 0.00708008 4.50001C0.00708008 4.63089 0.0583952 4.75655 0.150009 4.85001L3.65001 8.35001C3.74629 8.42223 3.8654 8.45729 3.98545 8.44875C4.10551 8.44022 4.21846 8.38867 4.30356 8.30357C4.38867 8.21846 4.44022 8.10551 4.44875 7.98546C4.45728 7.8654 4.42222 7.7463 4.35001 7.65001L1.71001 5.00001H7.00001C8.36001 5.00001 9.35001 5.50001 10 6.24001C10.66 6.98001 11 7.98001 11 9.00001C11 10.02 10.66 11.02 10 11.76C9.62 12.1721 9.15478 12.4966 8.6367 12.7107C8.11861 12.9248 7.56011 13.0236 7.00001 13H2.50001C2.3674 13 2.24022 13.0527 2.14646 13.1465C2.05269 13.2402 2.00001 13.3674 2.00001 13.5Z" fill="#b3b3b6"/>
</svg>
