<svg width="20" height="20" viewBox="0 0 20 20" fill="none" xmlns="http://www.w3.org/2000/svg">
<path d="M7.17001 3C7.44001 3 7.70001 3.07 7.93001 3.21L8.07 3.3L9.67001 4.5H15.5C16.1062 4.49955 16.6919 4.71937 17.1481 5.11856C17.6044 5.51775 17.9 6.0691 17.98 6.67L17.99 6.84L18 7V14.5C18.0013 15.1362 17.76 15.749 17.3252 16.2135C16.8904 16.678 16.2949 16.9593 15.66 17H4.50001C3.86378 17.0013 3.25099 16.76 2.78649 16.3252C2.32198 15.8904 2.04072 15.2949 2.00001 14.66V5.5C1.9987 4.86377 2.24002 4.25098 2.67479 3.78648C3.10956 3.32198 3.70508 3.04072 4.34001 3H7.17001ZM8.16001 7.03C7.91206 7.29121 7.5784 7.45449 7.22001 7.49L7.07001 7.5H3.00001V14.5C3.00001 15.28 3.60001 15.92 4.36001 16H15.5C16.28 16 16.92 15.4 17 14.64V7C17 6.22 16.4 5.58 15.64 5.5H9.62001L8.16001 7.03ZM7.16001 4H4.50001C3.72001 4 3.08001 4.6 3.00001 5.36V6.5H7.07001C7.17819 6.5 7.28346 6.46491 7.37001 6.4L7.43001 6.34L8.70001 5.02L7.47001 4.1C7.40595 4.04918 7.33041 4.01484 7.25001 4H7.17001H7.16001Z" fill="grey"/>
</svg>
