<svg width="17" height="16" viewBox="0 0 17 16" fill="none" xmlns="http://www.w3.org/2000/svg">
<path d="M1.49998 9H6.49998C6.61838 8.99807 6.73361 9.03822 6.82518 9.1133C6.91674 9.18838 6.97868 9.29352 6.99998 9.41V14.5C7.01192 14.6326 6.97068 14.7645 6.88535 14.8667C6.80002 14.9689 6.67759 15.0331 6.54498 15.045C6.41237 15.0569 6.28045 15.0157 6.17825 14.9304C6.07604 14.845 6.01192 14.7226 5.99998 14.59V10.7L0.849981 15.85C0.760555 15.9282 0.646228 15.9719 0.52747 15.9735C0.408711 15.975 0.293279 15.9343 0.201841 15.8585C0.110404 15.7827 0.0489339 15.6768 0.0284377 15.5598C0.00794158 15.4428 0.029758 15.3224 0.0899807 15.22L0.149981 15.15L5.28998 10H1.49998C1.38159 10.0019 1.26635 9.96178 1.17479 9.8867C1.08322 9.81162 1.02128 9.70648 0.999981 9.59V9.5C0.99805 9.38161 1.0382 9.26637 1.11328 9.17481C1.18836 9.08324 1.2935 9.0213 1.40998 9H6.49998H1.49998ZM15.85 0.15C16.03 0.32 16.05 0.59 15.91 0.78L15.85 0.85L10.71 6H14.5C14.6184 5.99807 14.7336 6.03822 14.8252 6.1133C14.9167 6.18838 14.9787 6.29352 15 6.41V6.5C15.0019 6.61839 14.9618 6.73363 14.8867 6.82519C14.8116 6.91676 14.7065 6.9787 14.59 7H9.40998L9.30998 6.96L9.22998 6.92L9.17998 6.88L9.14998 6.85L9.10998 6.81L9.06998 6.75L9.03998 6.69L9.01998 6.63V6.6C9.00992 6.56744 9.00322 6.53393 8.99998 6.5V6.57V1.5C8.98805 1.36739 9.02928 1.23547 9.11461 1.13327C9.19994 1.03106 9.32237 0.966935 9.45498 0.955C9.58759 0.943065 9.71951 0.984298 9.82171 1.06963C9.92392 1.15496 9.98805 1.27739 9.99998 1.41V5.3L15.15 0.15C15.35 -0.05 15.65 -0.05 15.85 0.15Z" fill="grey"/>
</svg>
